<svg xmlns="http://www.w3.org/2000/svg" xmlns:xlink="http://www.w3.org/1999/xlink" version="1.1" width="528px" height="384px" viewBox="0 0 3960 2880">
	<desc>Stata Graph - Graph</desc>
	<rect x="0" y="0" width="3960" height="2880" style="fill:#EAF2F3;stroke:none"/>
	<rect x="0.00" y="0.00" width="3959.88" height="2880.00" style="fill:#EAF2F3"/>
	<rect x="2.88" y="2.88" width="3954.12" height="2874.24" style="fill:none;stroke:#EAF2F3;stroke-width:5.76"/>
	<rect x="390.80" y="100.86" width="3468.22" height="2388.33" style="fill:#FFFFFF"/>
	<rect x="393.68" y="103.74" width="3462.46" height="2382.57" style="fill:none;stroke:#FFFFFF;stroke-width:5.76"/>
	<line x1="390.80" y1="2425.82" x2="3859.02" y2="2425.82" style="stroke:#EAF2F3;stroke-width:8.64"/>
	<line x1="390.80" y1="1973.50" x2="3859.02" y2="1973.50" style="stroke:#EAF2F3;stroke-width:8.64"/>
	<line x1="390.80" y1="1521.18" x2="3859.02" y2="1521.18" style="stroke:#EAF2F3;stroke-width:8.64"/>
	<line x1="390.80" y1="1068.86" x2="3859.02" y2="1068.86" style="stroke:#EAF2F3;stroke-width:8.64"/>
	<line x1="390.80" y1="616.54" x2="3859.02" y2="616.54" style="stroke:#EAF2F3;stroke-width:8.64"/>
	<line x1="390.80" y1="164.22" x2="3859.02" y2="164.22" style="stroke:#EAF2F3;stroke-width:8.64"/>
	<path d=" M871.82 2371.00 L1289.47 2226.58 L1707.13 1976.84 L2124.91 1976.84 L2542.57 1917.94 L2960.22 1816.34 L3378.00 1752.73" stroke-linejoin="round" style="fill:none;stroke:#1A476F;stroke-width:8.64"/>
	<path d=" M871.82 1825.86 L1289.47 1779.46 L1707.13 1735.28 L2124.91 1481.46 L2542.57 1342.98 L2960.22 1257.83 L3378.00 1235.68" stroke-linejoin="round" style="fill:none;stroke:#90353B;stroke-width:8.64"/>
	<path d=" M871.82 2287.96 L1289.47 1578.98 L1707.13 1477.62 L2124.91 1428.37 L2542.57 1344.09 L2960.22 1268.97 L3378.00 1194.97" stroke-linejoin="round" style="fill:none;stroke:#55752F;stroke-width:8.64"/>
	<path d=" M871.82 1831.56 L1289.47 1757.92 L1707.13 1701.49 L2124.91 1648.28 L2542.57 1549.03 L2960.22 1464.75 L3378.00 1411.41" stroke-linejoin="round" style="fill:none;stroke:#E37E00;stroke-width:8.64"/>
	<path d=" M871.82 1577.49 L1289.47 1412.65 L1707.13 1400.65 L2124.91 1084.46 L2542.57 1025.92 L2960.22 785.59 L3378.00 801.31" stroke-linejoin="round" style="fill:none;stroke:#6E8E84;stroke-width:8.64"/>
	<path d=" M871.82 1154.13 L1289.47 1154.13 L1707.13 1152.40 L2124.91 1066.14 L2542.57 1006.49 L2960.22 598.23 L3378.00 762.32" stroke-linejoin="round" style="fill:none;stroke:#C10534;stroke-width:8.64"/>
	<path d=" M871.82 1852.84 L1289.47 1816.34 L1707.13 1781.19 L2124.91 1689.86 L2542.57 1634.29 L2960.22 1570.31 L3378.00 1501.26" stroke-linejoin="round" style="fill:none;stroke:#938DD2;stroke-width:8.64"/>
	<path d=" M871.82 1673.65 L1289.47 1608.43 L1707.13 1481.46 L2124.91 1464.75 L2542.57 1438.27 L2960.22 1233.70 L3378.00 1166.88" stroke-linejoin="round" style="fill:none;stroke:#CAC27E;stroke-width:8.64"/>
	<path d=" M871.82 1475.02 L1289.47 1475.02 L1707.13 1247.69 L2124.91 1152.40 L2542.57 987.43 L2960.22 915.04 L3378.00 880.88" stroke-linejoin="round" style="fill:none;stroke:#A0522D;stroke-width:8.64"/>
	<path d=" M871.82 1614.49 L1289.47 1577.49 L1707.13 1577.49 L2124.91 1577.49 L2542.57 1501.26 L2960.22 1418.71 L3378.00 1304.74" stroke-linejoin="round" style="fill:none;stroke:#7B92A8;stroke-width:8.64"/>
	<path d=" M871.82 1378.25 L1289.47 1316.62 L1707.13 1247.69 L2124.91 1152.40 L2542.57 1032.97 L2960.22 953.40 L3378.00 847.96" stroke-linejoin="round" style="fill:none;stroke:#2D6D66;stroke-width:8.64"/>
	<path d=" M871.82 1475.02 L1289.47 1404.24 L1707.13 1319.83 L2124.91 1310.06 L2542.57 1319.83 L2960.22 1112.55 L3378.00 1021.22" stroke-linejoin="round" style="fill:none;stroke:#9C8847;stroke-width:8.64"/>
	<path d=" M871.82 1154.13 L1289.47 1158.71 L1707.13 915.04 L2124.91 828.78 L2542.57 834.47 L2960.22 838.31 L3378.00 707.01" stroke-linejoin="round" style="fill:none;stroke:#BFA19C;stroke-width:8.64"/>
	<path d=" M871.82 1247.69 L1289.47 1247.69 L1707.13 1136.18 L2124.91 1066.14 L2542.57 950.43 L2960.22 956.25 L3378.00 957.73" stroke-linejoin="round" style="fill:none;stroke:#FFD200;stroke-width:8.64"/>
	<path d=" M871.82 2027.71 L1289.47 2099.48 L1707.13 1974.49 L2124.91 1897.15 L2542.57 1615.98 L2960.22 1542.10 L3378.00 1542.10" stroke-linejoin="round" style="fill:none;stroke:#D9E6EB;stroke-width:8.64"/>
	<path d=" M871.82 1992.68 L1289.47 2169.16 L1707.13 2102.08 L2124.91 2015.83 L2542.57 1841.21 L2960.22 1814.48 L3378.00 1622.04" stroke-linejoin="round" style="fill:none;stroke:#1A476F;stroke-width:8.64"/>
	<path d=" M871.82 1412.65 L1289.47 1528.24 L1707.13 1267.98 L2124.91 1299.42 L2542.57 987.43 L2960.22 950.43 L3378.00 950.43" stroke-linejoin="round" style="fill:none;stroke:#90353B;stroke-width:8.64"/>
	<path d=" M871.82 1154.13 L1289.47 1154.13 L1707.13 525.34 L2124.91 481.16 L2542.57 418.66 L2960.22 360.37 L3378.00 341.68" stroke-linejoin="round" style="fill:none;stroke:#55752F;stroke-width:8.64"/>
	<path d=" M871.82 1623.53 L1289.47 1544.82 L1707.13 1482.82 L2124.91 1362.16 L2542.57 1302.63 L2960.22 1220.96 L3378.00 1126.53" stroke-linejoin="round" style="fill:none;stroke:#E37E00;stroke-width:8.64"/>
	<path d=" M871.82 1264.89 L1289.47 1197.81 L1707.13 1082.72 L2124.91 1016.51 L2542.57 882.86 L2960.22 969.49 L3378.00 827.54" stroke-linejoin="round" style="fill:none;stroke:#6E8E84;stroke-width:8.64"/>
	<line x1="390.80" y1="2489.19" x2="390.80" y2="100.86" style="stroke:#000000;stroke-width:5.76"/>
	<line x1="390.80" y1="2425.82" x2="350.83" y2="2425.82" style="stroke:#000000;stroke-width:5.76"/>
	<text x="300.72" y="2425.82" style="font-family:'Helvetica';font-size:99.99px;fill:#000000" transform="rotate(-90 300.72,2425.82)" text-anchor="middle">5.5</text>
	<line x1="390.80" y1="1973.50" x2="350.83" y2="1973.50" style="stroke:#000000;stroke-width:5.76"/>
	<text x="300.72" y="1973.50" style="font-family:'Helvetica';font-size:99.99px;fill:#000000" transform="rotate(-90 300.72,1973.50)" text-anchor="middle">6</text>
	<line x1="390.80" y1="1521.18" x2="350.83" y2="1521.18" style="stroke:#000000;stroke-width:5.76"/>
	<text x="300.72" y="1521.18" style="font-family:'Helvetica';font-size:99.99px;fill:#000000" transform="rotate(-90 300.72,1521.18)" text-anchor="middle">6.5</text>
	<line x1="390.80" y1="1068.86" x2="350.83" y2="1068.86" style="stroke:#000000;stroke-width:5.76"/>
	<text x="300.72" y="1068.86" style="font-family:'Helvetica';font-size:99.99px;fill:#000000" transform="rotate(-90 300.72,1068.86)" text-anchor="middle">7</text>
	<line x1="390.80" y1="616.54" x2="350.83" y2="616.54" style="stroke:#000000;stroke-width:5.76"/>
	<text x="300.72" y="616.54" style="font-family:'Helvetica';font-size:99.99px;fill:#000000" transform="rotate(-90 300.72,616.54)" text-anchor="middle">7.5</text>
	<line x1="390.80" y1="164.22" x2="350.83" y2="164.22" style="stroke:#000000;stroke-width:5.76"/>
	<text x="300.72" y="164.22" style="font-family:'Helvetica';font-size:99.99px;fill:#000000" transform="rotate(-90 300.72,164.22)" text-anchor="middle">8</text>
	<text x="190.71" y="1294.96" style="font-family:'Helvetica';font-size:99.99px;fill:#000000" transform="rotate(-90 190.71,1294.96)" text-anchor="middle">log wage</text>
	<line x1="390.80" y1="2489.19" x2="3859.02" y2="2489.19" style="stroke:#000000;stroke-width:5.76"/>
	<line x1="454.16" y1="2489.19" x2="454.16" y2="2529.16" style="stroke:#000000;stroke-width:5.76"/>
	<text x="454.16" y="2619.14" style="font-family:'Helvetica';font-size:99.99px;fill:#000000" text-anchor="middle">0</text>
	<line x1="1289.47" y1="2489.19" x2="1289.47" y2="2529.16" style="stroke:#000000;stroke-width:5.76"/>
	<text x="1289.47" y="2619.14" style="font-family:'Helvetica';font-size:99.99px;fill:#000000" text-anchor="middle">2</text>
	<line x1="2124.91" y1="2489.19" x2="2124.91" y2="2529.16" style="stroke:#000000;stroke-width:5.76"/>
	<text x="2124.91" y="2619.14" style="font-family:'Helvetica';font-size:99.99px;fill:#000000" text-anchor="middle">4</text>
	<line x1="2960.35" y1="2489.19" x2="2960.35" y2="2529.16" style="stroke:#000000;stroke-width:5.76"/>
	<text x="2960.35" y="2619.14" style="font-family:'Helvetica';font-size:99.99px;fill:#000000" text-anchor="middle">6</text>
	<line x1="3795.66" y1="2489.19" x2="3795.66" y2="2529.16" style="stroke:#000000;stroke-width:5.76"/>
	<text x="3795.66" y="2619.14" style="font-family:'Helvetica';font-size:99.99px;fill:#000000" text-anchor="middle">8</text>
	<text x="2124.91" y="2729.16" style="font-family:'Helvetica';font-size:99.99px;fill:#000000" text-anchor="middle">t</text>
</svg>