<svg xmlns="http://www.w3.org/2000/svg" xmlns:xlink="http://www.w3.org/1999/xlink" version="1.1" width="528px" height="384px" viewBox="0 0 3960 2880">
	<desc>Stata Graph - Graph</desc>
	<rect x="0" y="0" width="3960" height="2880" style="fill:#EAF2F3;stroke:none"/>
	<rect x="0.00" y="0.00" width="3959.88" height="2880.00" style="fill:#EAF2F3"/>
	<rect x="2.88" y="2.88" width="3954.12" height="2874.24" style="fill:none;stroke:#EAF2F3;stroke-width:5.76"/>
	<rect x="63.36" y="63.36" width="1916.64" height="2753.28" style="fill:#EAF2F3"/>
	<rect x="66.24" y="66.24" width="1910.88" height="2747.52" style="fill:none;stroke:#EAF2F3;stroke-width:5.76"/>
	<rect x="454.16" y="164.22" width="1424.98" height="2261.60" style="fill:#FFFFFF"/>
	<rect x="457.04" y="167.10" width="1419.22" height="2255.84" style="fill:none;stroke:#FFFFFF;stroke-width:5.76"/>
	<line x1="454.16" y1="2362.46" x2="1879.14" y2="2362.46" style="stroke:#EAF2F3;stroke-width:8.64"/>
	<line x1="454.16" y1="1935.51" x2="1879.14" y2="1935.51" style="stroke:#EAF2F3;stroke-width:8.64"/>
	<line x1="454.16" y1="1508.56" x2="1879.14" y2="1508.56" style="stroke:#EAF2F3;stroke-width:8.64"/>
	<line x1="454.16" y1="1081.49" x2="1879.14" y2="1081.49" style="stroke:#EAF2F3;stroke-width:8.64"/>
	<line x1="454.16" y1="654.53" x2="1879.14" y2="654.53" style="stroke:#EAF2F3;stroke-width:8.64"/>
	<line x1="454.16" y1="227.46" x2="1879.14" y2="227.46" style="stroke:#EAF2F3;stroke-width:8.64"/>
	<path d=" M679.76 2310.73 L842.00 2174.36 L1004.23 1938.60 L1166.59 1938.60 L1328.83 1883.04 L1491.19 1787.13 L1653.42 1726.99" stroke-linejoin="round" style="fill:none;stroke:#1A476F;stroke-width:8.64"/>
	<path d=" M679.76 1796.04 L842.00 1752.23 L1004.23 1710.65 L1166.59 1471.06 L1328.83 1340.25 L1491.19 1259.81 L1653.42 1239.02" stroke-linejoin="round" style="fill:none;stroke:#90353B;stroke-width:8.64"/>
	<path d=" M679.76 2232.27 L842.00 1563.14 L1004.23 1467.35 L1166.59 1420.94 L1328.83 1341.37 L1491.19 1270.46 L1653.42 1200.54" stroke-linejoin="round" style="fill:none;stroke:#55752F;stroke-width:8.64"/>
	<path d=" M679.76 1801.49 L842.00 1732.06 L1004.23 1678.72 L1166.59 1628.48 L1328.83 1534.80 L1491.19 1455.22 L1653.42 1404.85" stroke-linejoin="round" style="fill:none;stroke:#E37E00;stroke-width:8.64"/>
	<path d=" M679.76 1561.77 L842.00 1405.97 L1004.23 1394.71 L1166.59 1096.21 L1328.83 1041.02 L1491.19 814.05 L1653.42 829.03" stroke-linejoin="round" style="fill:none;stroke:#6E8E84;stroke-width:8.64"/>
	<path d=" M679.76 1162.05 L842.00 1162.05 L1004.23 1160.32 L1166.59 1078.89 L1328.83 1022.58 L1491.19 637.33 L1653.42 792.15" stroke-linejoin="round" style="fill:none;stroke:#C10534;stroke-width:8.64"/>
	<path d=" M679.76 1821.66 L842.00 1787.13 L1004.23 1753.96 L1166.59 1667.83 L1328.83 1615.24 L1491.19 1554.97 L1653.42 1489.75" stroke-linejoin="round" style="fill:none;stroke:#938DD2;stroke-width:8.64"/>
	<path d=" M679.76 1652.49 L842.00 1590.86 L1004.23 1471.06 L1166.59 1455.22 L1328.83 1430.22 L1491.19 1237.17 L1653.42 1174.18" stroke-linejoin="round" style="fill:none;stroke:#CAC27E;stroke-width:8.64"/>
	<path d=" M679.76 1465.00 L842.00 1465.00 L1004.23 1250.29 L1166.59 1160.32 L1328.83 1004.63 L1491.19 936.32 L1653.42 904.02" stroke-linejoin="round" style="fill:none;stroke:#A0522D;stroke-width:8.64"/>
	<path d=" M679.76 1596.55 L842.00 1561.77 L1004.23 1561.77 L1166.59 1561.77 L1328.83 1489.75 L1491.19 1411.78 L1653.42 1304.12" stroke-linejoin="round" style="fill:none;stroke:#7B92A8;stroke-width:8.64"/>
	<path d=" M679.76 1373.67 L842.00 1315.38 L1004.23 1250.29 L1166.59 1160.32 L1328.83 1047.70 L1491.19 972.58 L1653.42 872.96" stroke-linejoin="round" style="fill:none;stroke:#2D6D66;stroke-width:8.64"/>
	<path d=" M679.76 1465.00 L842.00 1398.05 L1004.23 1318.47 L1166.59 1309.19 L1328.83 1318.47 L1491.19 1122.70 L1653.42 1036.56" stroke-linejoin="round" style="fill:none;stroke:#9C8847;stroke-width:8.64"/>
	<path d=" M679.76 1162.05 L842.00 1166.38 L1004.23 936.32 L1166.59 854.89 L1328.83 860.34 L1491.19 863.93 L1653.42 739.92" stroke-linejoin="round" style="fill:none;stroke:#BFA19C;stroke-width:8.64"/>
	<path d=" M679.76 1250.29 L842.00 1250.29 L1004.23 1145.09 L1166.59 1078.89 L1328.83 969.74 L1491.19 975.30 L1653.42 976.67" stroke-linejoin="round" style="fill:none;stroke:#FFD200;stroke-width:8.64"/>
	<path d=" M679.76 1986.62 L842.00 2054.44 L1004.23 1936.50 L1166.59 1863.36 L1328.83 1598.03 L1491.19 1528.24 L1653.42 1528.24" stroke-linejoin="round" style="fill:none;stroke:#D9E6EB;stroke-width:8.64"/>
	<path d=" M679.76 1953.58 L842.00 2120.15 L1004.23 2056.91 L1166.59 1975.48 L1328.83 1810.64 L1491.19 1785.40 L1653.42 1603.73" stroke-linejoin="round" style="fill:none;stroke:#1A476F;stroke-width:8.64"/>
	<path d=" M679.76 1405.97 L842.00 1515.24 L1004.23 1269.47 L1166.59 1299.17 L1328.83 1004.63 L1491.19 969.74 L1653.42 969.74" stroke-linejoin="round" style="fill:none;stroke:#90353B;stroke-width:8.64"/>
	<path d=" M679.76 1162.05 L842.00 1162.05 L1004.23 568.40 L1166.59 526.70 L1328.83 467.79 L1491.19 412.72 L1653.42 395.15" stroke-linejoin="round" style="fill:none;stroke:#55752F;stroke-width:8.64"/>
	<path d=" M679.76 1605.21 L842.00 1530.84 L1004.23 1472.30 L1166.59 1358.45 L1328.83 1302.14 L1491.19 1225.04 L1653.42 1135.94" stroke-linejoin="round" style="fill:none;stroke:#E37E00;stroke-width:8.64"/>
	<path d=" M679.76 1266.62 L842.00 1203.26 L1004.23 1094.60 L1166.59 1032.11 L1328.83 906.00 L1491.19 987.68 L1653.42 853.65" stroke-linejoin="round" style="fill:none;stroke:#6E8E84;stroke-width:8.64"/>
	<line x1="454.16" y1="2425.82" x2="454.16" y2="164.22" style="stroke:#000000;stroke-width:5.76"/>
	<line x1="454.16" y1="2362.46" x2="414.19" y2="2362.46" style="stroke:#000000;stroke-width:5.76"/>
	<text x="364.08" y="2362.46" style="font-family:'Helvetica';font-size:99.99px;fill:#000000" transform="rotate(-90 364.08,2362.46)" text-anchor="middle">5.5</text>
	<line x1="454.16" y1="1935.51" x2="414.19" y2="1935.51" style="stroke:#000000;stroke-width:5.76"/>
	<text x="364.08" y="1935.51" style="font-family:'Helvetica';font-size:99.99px;fill:#000000" transform="rotate(-90 364.08,1935.51)" text-anchor="middle">6</text>
	<line x1="454.16" y1="1508.56" x2="414.19" y2="1508.56" style="stroke:#000000;stroke-width:5.76"/>
	<text x="364.08" y="1508.56" style="font-family:'Helvetica';font-size:99.99px;fill:#000000" transform="rotate(-90 364.08,1508.56)" text-anchor="middle">6.5</text>
	<line x1="454.16" y1="1081.49" x2="414.19" y2="1081.49" style="stroke:#000000;stroke-width:5.76"/>
	<text x="364.08" y="1081.49" style="font-family:'Helvetica';font-size:99.99px;fill:#000000" transform="rotate(-90 364.08,1081.49)" text-anchor="middle">7</text>
	<line x1="454.16" y1="654.53" x2="414.19" y2="654.53" style="stroke:#000000;stroke-width:5.76"/>
	<text x="364.08" y="654.53" style="font-family:'Helvetica';font-size:99.99px;fill:#000000" transform="rotate(-90 364.08,654.53)" text-anchor="middle">7.5</text>
	<line x1="454.16" y1="227.46" x2="414.19" y2="227.46" style="stroke:#000000;stroke-width:5.76"/>
	<text x="364.08" y="227.46" style="font-family:'Helvetica';font-size:99.99px;fill:#000000" transform="rotate(-90 364.08,227.46)" text-anchor="middle">8</text>
	<text x="254.07" y="1294.96" style="font-family:'Helvetica';font-size:99.99px;fill:#000000" transform="rotate(-90 254.07,1294.96)" text-anchor="middle">log wage</text>
	<line x1="454.16" y1="2425.82" x2="1879.14" y2="2425.82" style="stroke:#000000;stroke-width:5.76"/>
	<line x1="517.52" y1="2425.82" x2="517.52" y2="2465.80" style="stroke:#000000;stroke-width:5.76"/>
	<text x="517.52" y="2555.78" style="font-family:'Helvetica';font-size:99.99px;fill:#000000" text-anchor="middle">0</text>
	<line x1="842.12" y1="2425.82" x2="842.12" y2="2465.80" style="stroke:#000000;stroke-width:5.76"/>
	<text x="842.12" y="2555.78" style="font-family:'Helvetica';font-size:99.99px;fill:#000000" text-anchor="middle">2</text>
	<line x1="1166.59" y1="2425.82" x2="1166.59" y2="2465.80" style="stroke:#000000;stroke-width:5.76"/>
	<text x="1166.59" y="2555.78" style="font-family:'Helvetica';font-size:99.99px;fill:#000000" text-anchor="middle">4</text>
	<line x1="1491.19" y1="2425.82" x2="1491.19" y2="2465.80" style="stroke:#000000;stroke-width:5.76"/>
	<text x="1491.19" y="2555.78" style="font-family:'Helvetica';font-size:99.99px;fill:#000000" text-anchor="middle">6</text>
	<line x1="1815.78" y1="2425.82" x2="1815.78" y2="2465.80" style="stroke:#000000;stroke-width:5.76"/>
	<text x="1815.78" y="2555.78" style="font-family:'Helvetica';font-size:99.99px;fill:#000000" text-anchor="middle">8</text>
	<text x="1166.59" y="2665.79" style="font-family:'Helvetica';font-size:99.99px;fill:#000000" text-anchor="middle">t</text>
	<rect x="1980.00" y="63.36" width="1916.52" height="2753.28" style="fill:#EAF2F3"/>
	<rect x="1982.88" y="66.24" width="1910.76" height="2747.52" style="fill:none;stroke:#EAF2F3;stroke-width:5.76"/>
	<rect x="2370.68" y="164.22" width="1424.98" height="2261.60" style="fill:#FFFFFF"/>
	<rect x="2373.56" y="167.10" width="1419.22" height="2255.84" style="fill:none;stroke:#FFFFFF;stroke-width:5.76"/>
	<line x1="2370.68" y1="2179.43" x2="3795.66" y2="2179.43" style="stroke:#EAF2F3;stroke-width:8.64"/>
	<line x1="2370.68" y1="1569.45" x2="3795.66" y2="1569.45" style="stroke:#EAF2F3;stroke-width:8.64"/>
	<line x1="2370.68" y1="959.46" x2="3795.66" y2="959.46" style="stroke:#EAF2F3;stroke-width:8.64"/>
	<line x1="2370.68" y1="349.48" x2="3795.66" y2="349.48" style="stroke:#EAF2F3;stroke-width:8.64"/>
	<path d=" M2596.28 1447.55 L2758.64 776.56 L2920.87 959.59 L3083.11 1020.60 L3245.47 837.57 L3407.70 1264.52 L3570.06 1447.55" stroke-linejoin="round" style="fill:none;stroke:#1A476F;stroke-width:8.64"/>
	<path d=" M2596.28 1325.53 L2758.64 1752.60 L2920.87 1386.54 L3083.11 1569.57 L3245.47 1569.57 L3407.70 1142.62 L3570.06 1569.57" stroke-linejoin="round" style="fill:none;stroke:#90353B;stroke-width:8.64"/>
	<path d=" M2596.28 349.60 L2758.64 288.59 L2920.87 349.60 L3083.11 227.58 L3245.47 227.58 L3407.70 227.58 L3570.06 593.52" stroke-linejoin="round" style="fill:none;stroke:#55752F;stroke-width:8.64"/>
	<path d=" M2596.28 227.58 L2758.64 593.52 L2920.87 593.52 L3083.11 410.62 L3245.47 715.54 L3407.70 227.58 L3570.06 593.52" stroke-linejoin="round" style="fill:none;stroke:#E37E00;stroke-width:8.64"/>
	<path d=" M2596.28 349.60 L2758.64 593.52 L2920.87 959.59 L3083.11 349.60 L3245.47 532.64 L3407.70 532.64 L3570.06 410.62" stroke-linejoin="round" style="fill:none;stroke:#6E8E84;stroke-width:8.64"/>
	<path d=" M2596.28 715.54 L2758.64 532.64 L2920.87 532.64 L3083.11 532.64 L3245.47 715.54 L3407.70 654.53 L3570.06 532.64" stroke-linejoin="round" style="fill:none;stroke:#C10534;stroke-width:8.64"/>
	<path d=" M2596.28 593.52 L2758.64 471.63 L2920.87 410.62 L3083.11 593.52 L3245.47 532.64 L3407.70 532.64 L3570.06 471.63" stroke-linejoin="round" style="fill:none;stroke:#938DD2;stroke-width:8.64"/>
	<path d=" M2596.28 288.59 L2758.64 349.60 L2920.87 349.60 L3083.11 349.60 L3245.47 715.54 L3407.70 288.59 L3570.06 288.59" stroke-linejoin="round" style="fill:none;stroke:#CAC27E;stroke-width:8.64"/>
	<path d=" M2596.28 349.60 L2758.64 471.63 L2920.87 349.60 L3083.11 471.63 L3245.47 471.63 L3407.70 715.54 L3570.06 471.63" stroke-linejoin="round" style="fill:none;stroke:#A0522D;stroke-width:8.64"/>
	<path d=" M2596.28 410.62 L2758.64 532.64 L2920.87 593.52 L3083.11 715.54 L3245.47 776.56 L3407.70 1325.53 L3570.06 959.59" stroke-linejoin="round" style="fill:none;stroke:#7B92A8;stroke-width:8.64"/>
	<path d=" M2596.28 532.64 L2758.64 471.63 L2920.87 654.53 L3083.11 654.53 L3245.47 532.64 L3407.70 2362.59 L3570.06 532.64" stroke-linejoin="round" style="fill:none;stroke:#2D6D66;stroke-width:8.64"/>
	<path d=" M2596.28 532.64 L2758.64 593.52 L2920.87 532.64 L3083.11 532.64 L3245.47 532.64 L3407.70 532.64 L3570.06 593.52" stroke-linejoin="round" style="fill:none;stroke:#9C8847;stroke-width:8.64"/>
	<path d=" M2596.28 471.63 L2758.64 471.63 L2920.87 349.60 L3083.11 471.63 L3245.47 471.63 L3407.70 593.52 L3570.06 593.52" stroke-linejoin="round" style="fill:none;stroke:#BFA19C;stroke-width:8.64"/>
	<path d=" M2596.28 654.53 L2758.64 654.53 L2920.87 654.53 L3083.11 715.54 L3245.47 715.54 L3407.70 715.54 L3570.06 715.54" stroke-linejoin="round" style="fill:none;stroke:#FFD200;stroke-width:8.64"/>
	<path d=" M2596.28 349.60 L2758.64 593.52 L2920.87 471.63 L3083.11 593.52 L3245.47 471.63 L3407.70 898.58 L3570.06 471.63" stroke-linejoin="round" style="fill:none;stroke:#D9E6EB;stroke-width:8.64"/>
	<path d=" M2596.28 349.60 L2758.64 349.60 L2920.87 471.63 L3083.11 471.63 L3245.47 349.60 L3407.70 349.60 L3570.06 410.62" stroke-linejoin="round" style="fill:none;stroke:#1A476F;stroke-width:8.64"/>
	<path d=" M2596.28 410.62 L2758.64 471.63 L2920.87 410.62 L3083.11 349.60 L3245.47 288.59 L3407.70 593.52 L3570.06 532.64" stroke-linejoin="round" style="fill:none;stroke:#90353B;stroke-width:8.64"/>
	<path d=" M2596.28 532.64 L2758.64 593.52 L2920.87 532.64 L3083.11 532.64 L3245.47 532.64 L3407.70 471.63 L3570.06 532.64" stroke-linejoin="round" style="fill:none;stroke:#55752F;stroke-width:8.64"/>
	<path d=" M2596.28 1142.62 L2758.64 410.62 L2920.87 349.60 L3083.11 532.64 L3245.47 532.64 L3407.70 1874.50 L3570.06 959.59" stroke-linejoin="round" style="fill:none;stroke:#E37E00;stroke-width:8.64"/>
	<path d=" M2596.28 349.60 L2758.64 410.62 L2920.87 410.62 L3083.11 471.63 L3245.47 471.63 L3407.70 410.62 L3570.06 471.63" stroke-linejoin="round" style="fill:none;stroke:#6E8E84;stroke-width:8.64"/>
	<line x1="2370.68" y1="2425.82" x2="2370.68" y2="164.22" style="stroke:#000000;stroke-width:5.76"/>
	<line x1="2370.68" y1="2179.43" x2="2330.71" y2="2179.43" style="stroke:#000000;stroke-width:5.76"/>
	<text x="2280.72" y="2179.43" style="font-family:'Helvetica';font-size:99.99px;fill:#000000" transform="rotate(-90 2280.72,2179.43)" text-anchor="middle">20</text>
	<line x1="2370.68" y1="1569.45" x2="2330.71" y2="1569.45" style="stroke:#000000;stroke-width:5.76"/>
	<text x="2280.72" y="1569.45" style="font-family:'Helvetica';font-size:99.99px;fill:#000000" transform="rotate(-90 2280.72,1569.45)" text-anchor="middle">30</text>
	<line x1="2370.68" y1="959.46" x2="2330.71" y2="959.46" style="stroke:#000000;stroke-width:5.76"/>
	<text x="2280.72" y="959.46" style="font-family:'Helvetica';font-size:99.99px;fill:#000000" transform="rotate(-90 2280.72,959.46)" text-anchor="middle">40</text>
	<line x1="2370.68" y1="349.48" x2="2330.71" y2="349.48" style="stroke:#000000;stroke-width:5.76"/>
	<text x="2280.72" y="349.48" style="font-family:'Helvetica';font-size:99.99px;fill:#000000" transform="rotate(-90 2280.72,349.48)" text-anchor="middle">50</text>
	<text x="2170.71" y="1294.96" style="font-family:'Helvetica';font-size:99.99px;fill:#000000" transform="rotate(-90 2170.71,1294.96)" text-anchor="middle">weeks worked</text>
	<line x1="2370.68" y1="2425.82" x2="3795.66" y2="2425.82" style="stroke:#000000;stroke-width:5.76"/>
	<line x1="2434.04" y1="2425.82" x2="2434.04" y2="2465.80" style="stroke:#000000;stroke-width:5.76"/>
	<text x="2434.04" y="2555.78" style="font-family:'Helvetica';font-size:99.99px;fill:#000000" text-anchor="middle">0</text>
	<line x1="2758.64" y1="2425.82" x2="2758.64" y2="2465.80" style="stroke:#000000;stroke-width:5.76"/>
	<text x="2758.64" y="2555.78" style="font-family:'Helvetica';font-size:99.99px;fill:#000000" text-anchor="middle">2</text>
	<line x1="3083.23" y1="2425.82" x2="3083.23" y2="2465.80" style="stroke:#000000;stroke-width:5.76"/>
	<text x="3083.23" y="2555.78" style="font-family:'Helvetica';font-size:99.99px;fill:#000000" text-anchor="middle">4</text>
	<line x1="3407.83" y1="2425.82" x2="3407.83" y2="2465.80" style="stroke:#000000;stroke-width:5.76"/>
	<text x="3407.83" y="2555.78" style="font-family:'Helvetica';font-size:99.99px;fill:#000000" text-anchor="middle">6</text>
	<line x1="3732.42" y1="2425.82" x2="3732.42" y2="2465.80" style="stroke:#000000;stroke-width:5.76"/>
	<text x="3732.42" y="2555.78" style="font-family:'Helvetica';font-size:99.99px;fill:#000000" text-anchor="middle">8</text>
	<text x="3083.23" y="2665.79" style="font-family:'Helvetica';font-size:99.99px;fill:#000000" text-anchor="middle">t</text>
</svg>