<svg xmlns="http://www.w3.org/2000/svg" xmlns:xlink="http://www.w3.org/1999/xlink" version="1.1" width="528px" height="384px" viewBox="0 0 3960 2880">
	<desc>Stata Graph - Graph</desc>
	<rect x="0" y="0" width="3960" height="2880" style="fill:#EAF2F3;stroke:none"/>
	<rect x="0.00" y="0.00" width="3959.88" height="2880.00" style="fill:#EAF2F3"/>
	<rect x="2.88" y="2.88" width="3954.12" height="2874.24" style="fill:none;stroke:#EAF2F3;stroke-width:5.76"/>
	<rect x="390.80" y="100.86" width="3468.22" height="2388.33" style="fill:#FFFFFF"/>
	<rect x="393.68" y="103.74" width="3462.46" height="2382.57" style="fill:none;stroke:#FFFFFF;stroke-width:5.76"/>
	<line x1="390.80" y1="2232.02" x2="3859.02" y2="2232.02" style="stroke:#EAF2F3;stroke-width:8.64"/>
	<line x1="390.80" y1="1585.78" x2="3859.02" y2="1585.78" style="stroke:#EAF2F3;stroke-width:8.64"/>
	<line x1="390.80" y1="939.54" x2="3859.02" y2="939.54" style="stroke:#EAF2F3;stroke-width:8.64"/>
	<line x1="390.80" y1="293.42" x2="3859.02" y2="293.42" style="stroke:#EAF2F3;stroke-width:8.64"/>
	<path d=" M871.82 1456.58 L1289.47 745.74 L1707.13 939.66 L2124.91 1004.26 L2542.57 810.46 L2960.22 1262.78 L3378.00 1456.58" stroke-linejoin="round" style="fill:none;stroke:#1A476F;stroke-width:8.64"/>
	<path d=" M871.82 1327.38 L1289.47 1779.70 L1707.13 1391.98 L2124.91 1585.91 L2542.57 1585.91 L2960.22 1133.46 L3378.00 1585.91" stroke-linejoin="round" style="fill:none;stroke:#90353B;stroke-width:8.64"/>
	<path d=" M871.82 293.42 L1289.47 228.82 L1707.13 293.42 L2124.91 164.22 L2542.57 164.22 L2960.22 164.22 L3378.00 551.94" stroke-linejoin="round" style="fill:none;stroke:#55752F;stroke-width:8.64"/>
	<path d=" M871.82 164.22 L1289.47 551.94 L1707.13 551.94 L2124.91 358.02 L2542.57 681.14 L2960.22 164.22 L3378.00 551.94" stroke-linejoin="round" style="fill:none;stroke:#E37E00;stroke-width:8.64"/>
	<path d=" M871.82 293.42 L1289.47 551.94 L1707.13 939.66 L2124.91 293.42 L2542.57 487.34 L2960.22 487.34 L3378.00 358.02" stroke-linejoin="round" style="fill:none;stroke:#6E8E84;stroke-width:8.64"/>
	<path d=" M871.82 681.14 L1289.47 487.34 L1707.13 487.34 L2124.91 487.34 L2542.57 681.14 L2960.22 616.54 L3378.00 487.34" stroke-linejoin="round" style="fill:none;stroke:#C10534;stroke-width:8.64"/>
	<path d=" M871.82 551.94 L1289.47 422.74 L1707.13 358.02 L2124.91 551.94 L2542.57 487.34 L2960.22 487.34 L3378.00 422.74" stroke-linejoin="round" style="fill:none;stroke:#938DD2;stroke-width:8.64"/>
	<path d=" M871.82 228.82 L1289.47 293.42 L1707.13 293.42 L2124.91 293.42 L2542.57 681.14 L2960.22 228.82 L3378.00 228.82" stroke-linejoin="round" style="fill:none;stroke:#CAC27E;stroke-width:8.64"/>
	<path d=" M871.82 293.42 L1289.47 422.74 L1707.13 293.42 L2124.91 422.74 L2542.57 422.74 L2960.22 681.14 L3378.00 422.74" stroke-linejoin="round" style="fill:none;stroke:#A0522D;stroke-width:8.64"/>
	<path d=" M871.82 358.02 L1289.47 487.34 L1707.13 551.94 L2124.91 681.14 L2542.57 745.74 L2960.22 1327.38 L3378.00 939.66" stroke-linejoin="round" style="fill:none;stroke:#7B92A8;stroke-width:8.64"/>
	<path d=" M871.82 487.34 L1289.47 422.74 L1707.13 616.54 L2124.91 616.54 L2542.57 487.34 L2960.22 2425.95 L3378.00 487.34" stroke-linejoin="round" style="fill:none;stroke:#2D6D66;stroke-width:8.64"/>
	<path d=" M871.82 487.34 L1289.47 551.94 L1707.13 487.34 L2124.91 487.34 L2542.57 487.34 L2960.22 487.34 L3378.00 551.94" stroke-linejoin="round" style="fill:none;stroke:#9C8847;stroke-width:8.64"/>
	<path d=" M871.82 422.74 L1289.47 422.74 L1707.13 293.42 L2124.91 422.74 L2542.57 422.74 L2960.22 551.94 L3378.00 551.94" stroke-linejoin="round" style="fill:none;stroke:#BFA19C;stroke-width:8.64"/>
	<path d=" M871.82 616.54 L1289.47 616.54 L1707.13 616.54 L2124.91 681.14 L2542.57 681.14 L2960.22 681.14 L3378.00 681.14" stroke-linejoin="round" style="fill:none;stroke:#FFD200;stroke-width:8.64"/>
	<path d=" M871.82 293.42 L1289.47 551.94 L1707.13 422.74 L2124.91 551.94 L2542.57 422.74 L2960.22 875.06 L3378.00 422.74" stroke-linejoin="round" style="fill:none;stroke:#D9E6EB;stroke-width:8.64"/>
	<path d=" M871.82 293.42 L1289.47 293.42 L1707.13 422.74 L2124.91 422.74 L2542.57 293.42 L2960.22 293.42 L3378.00 358.02" stroke-linejoin="round" style="fill:none;stroke:#1A476F;stroke-width:8.64"/>
	<path d=" M871.82 358.02 L1289.47 422.74 L1707.13 358.02 L2124.91 293.42 L2542.57 228.82 L2960.22 551.94 L3378.00 487.34" stroke-linejoin="round" style="fill:none;stroke:#90353B;stroke-width:8.64"/>
	<path d=" M871.82 487.34 L1289.47 551.94 L1707.13 487.34 L2124.91 487.34 L2542.57 487.34 L2960.22 422.74 L3378.00 487.34" stroke-linejoin="round" style="fill:none;stroke:#55752F;stroke-width:8.64"/>
	<path d=" M871.82 1133.46 L1289.47 358.02 L1707.13 293.42 L2124.91 487.34 L2542.57 487.34 L2960.22 1908.90 L3378.00 939.66" stroke-linejoin="round" style="fill:none;stroke:#E37E00;stroke-width:8.64"/>
	<path d=" M871.82 293.42 L1289.47 358.02 L1707.13 358.02 L2124.91 422.74 L2542.57 422.74 L2960.22 358.02 L3378.00 422.74" stroke-linejoin="round" style="fill:none;stroke:#6E8E84;stroke-width:8.64"/>
	<line x1="390.80" y1="2489.19" x2="390.80" y2="100.86" style="stroke:#000000;stroke-width:5.76"/>
	<line x1="390.80" y1="2232.02" x2="350.83" y2="2232.02" style="stroke:#000000;stroke-width:5.76"/>
	<text x="300.72" y="2232.02" style="font-family:'Helvetica';font-size:99.99px;fill:#000000" transform="rotate(-90 300.72,2232.02)" text-anchor="middle">20</text>
	<line x1="390.80" y1="1585.78" x2="350.83" y2="1585.78" style="stroke:#000000;stroke-width:5.76"/>
	<text x="300.72" y="1585.78" style="font-family:'Helvetica';font-size:99.99px;fill:#000000" transform="rotate(-90 300.72,1585.78)" text-anchor="middle">30</text>
	<line x1="390.80" y1="939.54" x2="350.83" y2="939.54" style="stroke:#000000;stroke-width:5.76"/>
	<text x="300.72" y="939.54" style="font-family:'Helvetica';font-size:99.99px;fill:#000000" transform="rotate(-90 300.72,939.54)" text-anchor="middle">40</text>
	<line x1="390.80" y1="293.42" x2="350.83" y2="293.42" style="stroke:#000000;stroke-width:5.76"/>
	<text x="300.72" y="293.42" style="font-family:'Helvetica';font-size:99.99px;fill:#000000" transform="rotate(-90 300.72,293.42)" text-anchor="middle">50</text>
	<text x="190.71" y="1294.96" style="font-family:'Helvetica';font-size:99.99px;fill:#000000" transform="rotate(-90 190.71,1294.96)" text-anchor="middle">weeks worked</text>
	<line x1="390.80" y1="2489.19" x2="3859.02" y2="2489.19" style="stroke:#000000;stroke-width:5.76"/>
	<line x1="454.16" y1="2489.19" x2="454.16" y2="2529.16" style="stroke:#000000;stroke-width:5.76"/>
	<text x="454.16" y="2619.14" style="font-family:'Helvetica';font-size:99.99px;fill:#000000" text-anchor="middle">0</text>
	<line x1="1289.47" y1="2489.19" x2="1289.47" y2="2529.16" style="stroke:#000000;stroke-width:5.76"/>
	<text x="1289.47" y="2619.14" style="font-family:'Helvetica';font-size:99.99px;fill:#000000" text-anchor="middle">2</text>
	<line x1="2124.91" y1="2489.19" x2="2124.91" y2="2529.16" style="stroke:#000000;stroke-width:5.76"/>
	<text x="2124.91" y="2619.14" style="font-family:'Helvetica';font-size:99.99px;fill:#000000" text-anchor="middle">4</text>
	<line x1="2960.35" y1="2489.19" x2="2960.35" y2="2529.16" style="stroke:#000000;stroke-width:5.76"/>
	<text x="2960.35" y="2619.14" style="font-family:'Helvetica';font-size:99.99px;fill:#000000" text-anchor="middle">6</text>
	<line x1="3795.66" y1="2489.19" x2="3795.66" y2="2529.16" style="stroke:#000000;stroke-width:5.76"/>
	<text x="3795.66" y="2619.14" style="font-family:'Helvetica';font-size:99.99px;fill:#000000" text-anchor="middle">8</text>
	<text x="2124.91" y="2729.16" style="font-family:'Helvetica';font-size:99.99px;fill:#000000" text-anchor="middle">t</text>
</svg>