<?xml version="1.0" standalone="no"?>
<!DOCTYPE svg PUBLIC "-//W3C//DTD SVG 20010904//EN"
 "http://www.w3.org/TR/2001/REC-SVG-20010904/DTD/svg10.dtd">
<svg version="1.0" xmlns="http://www.w3.org/2000/svg"
 width="317.000000pt" height="317.000000pt" viewBox="0 0 317.000000 317.000000"
 preserveAspectRatio="xMidYMid meet">
<metadata>
Created by potrace 1.14, written by Peter Selinger 2001-2017
</metadata>
<g transform="translate(0.000000,317.000000) scale(0.100000,-0.100000)"
fill="#000000" stroke="none">
<path d="M1456 2772 c-2 -1 -25 -4 -52 -7 -27 -2 -50 -4 -51 -5 -2 -2 -6 -3
-10 -4 -28 -5 -111 -43 -127 -58 -11 -10 -23 -18 -27 -18 -4 0 -29 -20 -56
-45 -26 -25 -44 -45 -40 -45 4 0 -3 -10 -16 -22 -21 -21 -71 -95 -72 -108 -1
-3 -6 -14 -12 -25 -5 -11 -15 -36 -22 -55 -6 -19 -22 -47 -35 -61 -13 -14 -28
-35 -35 -46 -15 -28 -25 -97 -13 -90 5 4 6 -12 2 -38 -4 -25 -5 -45 -2 -45 2
0 0 -6 -5 -12 -11 -14 -12 -25 -13 -102 0 -28 4 -54 10 -60 5 -5 10 -18 10
-29 0 -11 5 -15 11 -11 8 5 8 1 0 -14 -6 -12 -16 -24 -21 -27 -6 -4 -8 -10 -5
-14 2 -5 -2 -22 -10 -38 -8 -17 -16 -42 -17 -57 -1 -14 -5 -26 -8 -26 -3 0 -5
-19 -5 -42 1 -24 -3 -46 -7 -49 -5 -3 -11 -12 -12 -20 -2 -8 -9 -28 -16 -46
-6 -18 -11 -35 -10 -39 1 -4 -3 -10 -10 -14 -6 -4 -12 -17 -13 -28 -1 -12 -6
-22 -11 -22 -5 0 -6 -3 -3 -7 4 -3 2 -12 -4 -20 -6 -7 -8 -13 -4 -13 4 0 3 -6
-3 -13 -11 -13 -20 -47 -28 -106 -5 -32 -3 -33 23 -28 18 3 31 0 40 -11 11
-16 12 -16 13 0 0 9 -4 28 -10 42 -6 18 -6 26 1 26 6 0 8 4 5 9 -3 5 1 12 10
15 9 4 14 9 10 13 -3 3 1 15 11 25 9 10 12 18 8 18 -5 0 0 7 11 16 10 8 13 13
7 9 -7 -3 -13 -1 -13 4 0 6 4 11 8 11 5 0 17 18 27 40 20 44 30 50 32 20 1
-11 -2 -18 -7 -15 -6 3 -7 0 -4 -8 3 -8 0 -18 -5 -22 -6 -3 -9 -11 -5 -16 3
-5 0 -26 -7 -47 -7 -20 -14 -39 -14 -42 -4 -21 -19 -56 -27 -61 -5 -3 -3 -9 6
-12 9 -4 17 -2 17 3 1 6 2 15 3 20 0 6 8 15 16 20 8 5 11 10 6 10 -5 0 -3 7 4
15 6 8 9 19 6 24 -4 5 -2 12 3 16 6 3 8 12 4 20 -3 8 0 15 7 15 7 0 10 8 7 20
-3 11 -1 20 5 20 6 0 8 6 5 14 -3 7 -1 18 4 23 5 5 11 24 13 43 2 19 9 36 14
38 6 2 8 10 5 18 -7 19 2 18 26 -3 11 -9 18 -20 15 -25 -3 -4 0 -8 7 -8 7 0 9
-3 6 -7 -4 -3 -2 -12 3 -19 6 -6 9 -16 8 -20 -4 -12 42 -85 50 -81 4 2 20 -9
35 -24 l29 -28 -54 -27 c-29 -16 -55 -29 -58 -29 -14 -4 -46 -19 -50 -24 -3
-3 -32 -19 -65 -36 -33 -16 -61 -33 -63 -37 -2 -5 -8 -8 -13 -8 -5 0 -18 -8
-29 -18 -11 -9 -23 -16 -25 -14 -5 2 -19 -10 -83 -71 -33 -31 -72 -102 -72
-130 0 -7 -3 -17 -8 -21 -4 -4 -7 -11 -8 -14 -1 -17 -17 -78 -22 -87 -7 -10
-9 -20 -16 -70 -3 -16 -5 -30 -6 -30 -2 0 -9 -33 -14 -65 -2 -14 -7 -32 -10
-41 -4 -8 -8 -35 -11 -60 -2 -24 -5 -45 -6 -46 -2 -4 -4 -13 -12 -64 -4 -25
-10 -57 -12 -70 -2 -13 -7 -44 -9 -69 -3 -25 -10 -71 -15 -104 -6 -32 -10 -61
-9 -65 0 -3 0 -8 -2 -11 -3 -8 -10 -62 -13 -101 -2 -19 -7 -40 -10 -46 -4 -6
-4 -13 0 -17 11 -11 2381 -7 2388 4 3 5 3 10 -2 10 -4 0 -9 44 -9 98 -2 102
-5 129 -17 149 -4 7 -10 34 -12 60 -2 27 -4 48 -5 48 -1 0 -4 16 -7 35 -2 19
-10 38 -16 42 -9 6 -9 8 0 8 8 0 7 12 -3 45 -7 25 -13 47 -13 50 0 9 -13 99
-18 120 -5 24 -22 101 -28 130 -2 11 -4 20 -5 20 -3 0 -9 28 -15 70 -4 22 -10
49 -14 60 -5 11 -13 31 -18 45 -20 54 -85 179 -101 197 -28 30 -149 95 -179
96 -7 0 -13 4 -13 8 0 5 -25 15 -60 24 -3 0 -15 6 -28 13 -12 7 -27 10 -32 7
-6 -3 -10 -2 -10 2 0 9 -69 39 -82 35 -5 -1 -8 3 -8 8 0 6 -6 10 -13 10 -7 0
-32 9 -55 20 -22 11 -46 20 -52 20 -5 0 -10 4 -10 10 0 5 -3 9 -7 9 -8 -1 -12
0 -30 6 -5 2 -18 6 -30 10 -32 10 -35 31 -7 44 14 6 30 15 37 21 7 5 30 25 52
42 23 18 43 38 45 43 2 6 14 21 27 35 13 14 23 30 23 37 0 7 4 13 10 13 5 0 6
9 1 22 -10 29 9 93 34 113 20 15 20 15 0 20 -12 4 -27 21 -34 38 -16 37 -56
88 -64 81 -2 -3 -7 2 -10 11 -6 14 9 20 36 16 4 0 7 4 7 9 0 6 17 27 39 48 44
43 51 88 13 86 -12 0 -22 3 -22 8 0 4 -17 27 -37 49 -21 23 -37 45 -37 48 2
10 -8 35 -21 51 -15 18 -32 70 -40 125 -8 47 -9 53 -20 80 -11 28 -68 104 -78
105 -14 0 -36 27 -29 35 4 4 3 5 -3 4 -5 -2 -32 12 -60 30 -27 17 -69 37 -92
44 -24 6 -43 14 -43 17 0 3 -15 7 -32 8 -18 2 -37 7 -42 12 -5 5 -16 5 -28 -1
-10 -5 -18 -6 -18 -2 0 7 -77 12 -84 5z m-557 -1149 c-6 -7 -8 -13 -3 -13 5 0
1 -5 -9 -11 -9 -6 -15 -14 -12 -20 4 -5 2 -9 -4 -9 -6 0 -8 -6 -5 -13 2 -7 -3
-22 -13 -32 -10 -11 -19 -29 -21 -39 -4 -21 -30 -51 -38 -43 -3 2 2 12 11 20
9 9 15 18 14 19 -10 15 60 155 78 155 9 0 10 -4 2 -14z m-89 -197 c0 -3 -4 -8
-10 -11 -5 -3 -10 -1 -10 4 0 6 5 11 10 11 6 0 10 -2 10 -4z"/>
</g>
</svg>
