<svg xmlns="http://www.w3.org/2000/svg" xmlns:xlink="http://www.w3.org/1999/xlink" version="1.1" width="528px" height="384px" viewBox="0 0 3960 2880">
	<desc>Stata Graph - Graph</desc>
	<rect x="0" y="0" width="3960" height="2880" style="fill:#EAF2F3;stroke:none"/>
	<rect x="0.00" y="0.00" width="3959.88" height="2880.00" style="fill:#EAF2F3"/>
	<rect x="2.88" y="2.88" width="3954.12" height="2874.24" style="fill:none;stroke:#EAF2F3;stroke-width:5.76"/>
	<rect x="290.81" y="100.86" width="3568.21" height="2132.77" style="fill:#FFFFFF"/>
	<rect x="293.69" y="103.74" width="3562.45" height="2127.01" style="fill:none;stroke:#FFFFFF;stroke-width:5.76"/>
	<line x1="290.81" y1="2170.27" x2="3859.02" y2="2170.27" style="stroke:#EAF2F3;stroke-width:8.64"/>
	<line x1="290.81" y1="1546.92" x2="3859.02" y2="1546.92" style="stroke:#EAF2F3;stroke-width:8.64"/>
	<line x1="290.81" y1="923.45" x2="3859.02" y2="923.45" style="stroke:#EAF2F3;stroke-width:8.64"/>
	<line x1="290.81" y1="299.98" x2="3859.02" y2="299.98" style="stroke:#EAF2F3;stroke-width:8.64"/>
	<circle cx="2120.09" cy="1466.85" r="26.35" style="fill:#1A476F"/>
	<circle cx="2120.09" cy="1466.85" r="22.03" style="fill:none;stroke:#1A476F;stroke-width:8.64"/>
	<circle cx="600.43" cy="1235.81" r="26.35" style="fill:#1A476F"/>
	<circle cx="600.43" cy="1235.81" r="22.03" style="fill:none;stroke:#1A476F;stroke-width:8.64"/>
	<circle cx="1100.14" cy="1307.46" r="26.35" style="fill:#1A476F"/>
	<circle cx="1100.14" cy="1307.46" r="22.03" style="fill:none;stroke:#1A476F;stroke-width:8.64"/>
	<circle cx="477.30" cy="1633.06" r="26.35" style="fill:#1A476F"/>
	<circle cx="477.30" cy="1633.06" r="22.03" style="fill:none;stroke:#1A476F;stroke-width:8.64"/>
	<circle cx="600.43" cy="1438.14" r="26.35" style="fill:#1A476F"/>
	<circle cx="600.43" cy="1438.14" r="22.03" style="fill:none;stroke:#1A476F;stroke-width:8.64"/>
	<circle cx="611.45" cy="1767.08" r="26.35" style="fill:#1A476F"/>
	<circle cx="611.45" cy="1767.08" r="22.03" style="fill:none;stroke:#1A476F;stroke-width:8.64"/>
	<circle cx="552.54" cy="1526.13" r="26.35" style="fill:#1A476F"/>
	<circle cx="552.54" cy="1526.13" r="22.03" style="fill:none;stroke:#1A476F;stroke-width:8.64"/>
	<circle cx="1586.10" cy="1215.26" r="26.35" style="fill:#1A476F"/>
	<circle cx="1586.10" cy="1215.26" r="22.03" style="fill:none;stroke:#1A476F;stroke-width:8.64"/>
	<circle cx="3475.27" cy="1437.90" r="26.35" style="fill:#1A476F"/>
	<circle cx="3475.27" cy="1437.90" r="22.03" style="fill:none;stroke:#1A476F;stroke-width:8.64"/>
	<circle cx="816.13" cy="1161.93" r="26.35" style="fill:#1A476F"/>
	<circle cx="816.13" cy="1161.93" r="22.03" style="fill:none;stroke:#1A476F;stroke-width:8.64"/>
	<circle cx="570.36" cy="1897.02" r="26.35" style="fill:#1A476F"/>
	<circle cx="570.36" cy="1897.02" r="22.03" style="fill:none;stroke:#1A476F;stroke-width:8.64"/>
	<circle cx="708.72" cy="1701.12" r="26.35" style="fill:#1A476F"/>
	<circle cx="708.72" cy="1701.12" r="22.03" style="fill:none;stroke:#1A476F;stroke-width:8.64"/>
	<circle cx="785.32" cy="1764.36" r="26.35" style="fill:#1A476F"/>
	<circle cx="785.32" cy="1764.36" r="22.03" style="fill:none;stroke:#1A476F;stroke-width:8.64"/>
	<circle cx="909.32" cy="1504.48" r="26.35" style="fill:#1A476F"/>
	<circle cx="909.32" cy="1504.48" r="22.03" style="fill:none;stroke:#1A476F;stroke-width:8.64"/>
	<circle cx="601.92" cy="1406.46" r="26.35" style="fill:#1A476F"/>
	<circle cx="601.92" cy="1406.46" r="22.03" style="fill:none;stroke:#1A476F;stroke-width:8.64"/>
	<circle cx="1348.01" cy="1241.99" r="26.35" style="fill:#1A476F"/>
	<circle cx="1348.01" cy="1241.99" r="22.03" style="fill:none;stroke:#1A476F;stroke-width:8.64"/>
	<circle cx="1278.09" cy="1882.79" r="26.35" style="fill:#1A476F"/>
	<circle cx="1278.09" cy="1882.79" r="22.03" style="fill:none;stroke:#1A476F;stroke-width:8.64"/>
	<circle cx="630.63" cy="1860.02" r="26.35" style="fill:#1A476F"/>
	<circle cx="630.63" cy="1860.02" r="22.03" style="fill:none;stroke:#1A476F;stroke-width:8.64"/>
	<circle cx="682.61" cy="2078.94" r="26.35" style="fill:#1A476F"/>
	<circle cx="682.61" cy="2078.94" r="22.03" style="fill:none;stroke:#1A476F;stroke-width:8.64"/>
	<circle cx="980.10" cy="1841.95" r="26.35" style="fill:#1A476F"/>
	<circle cx="980.10" cy="1841.95" r="22.03" style="fill:none;stroke:#1A476F;stroke-width:8.64"/>
	<circle cx="751.04" cy="1932.54" r="26.35" style="fill:#1A476F"/>
	<circle cx="751.04" cy="1932.54" r="22.03" style="fill:none;stroke:#1A476F;stroke-width:8.64"/>
	<circle cx="1668.65" cy="1020.85" r="26.35" style="fill:#1A476F"/>
	<circle cx="1668.65" cy="1020.85" r="22.03" style="fill:none;stroke:#1A476F;stroke-width:8.64"/>
	<circle cx="751.66" cy="1671.05" r="26.35" style="fill:#1A476F"/>
	<circle cx="751.66" cy="1671.05" r="22.03" style="fill:none;stroke:#1A476F;stroke-width:8.64"/>
	<circle cx="751.53" cy="826.68" r="26.35" style="fill:#1A476F"/>
	<circle cx="751.53" cy="826.68" r="22.03" style="fill:none;stroke:#1A476F;stroke-width:8.64"/>
	<circle cx="785.32" cy="1770.42" r="26.35" style="fill:#1A476F"/>
	<circle cx="785.32" cy="1770.42" r="22.03" style="fill:none;stroke:#1A476F;stroke-width:8.64"/>
	<circle cx="538.93" cy="805.64" r="26.35" style="fill:#1A476F"/>
	<circle cx="538.93" cy="805.64" r="22.03" style="fill:none;stroke:#1A476F;stroke-width:8.64"/>
	<circle cx="908.57" cy="1656.07" r="26.35" style="fill:#1A476F"/>
	<circle cx="908.57" cy="1656.07" r="22.03" style="fill:none;stroke:#1A476F;stroke-width:8.64"/>
	<circle cx="456.76" cy="1903.58" r="26.35" style="fill:#1A476F"/>
	<circle cx="456.76" cy="1903.58" r="22.03" style="fill:none;stroke:#1A476F;stroke-width:8.64"/>
	<circle cx="631.25" cy="164.22" r="26.35" style="fill:#1A476F"/>
	<circle cx="631.25" cy="164.22" r="22.03" style="fill:none;stroke:#1A476F;stroke-width:8.64"/>
	<circle cx="490.92" cy="2027.46" r="26.35" style="fill:#1A476F"/>
	<circle cx="490.92" cy="2027.46" r="22.03" style="fill:none;stroke:#1A476F;stroke-width:8.64"/>
	<circle cx="1996.83" cy="1443.47" r="26.35" style="fill:#1A476F"/>
	<circle cx="1996.83" cy="1443.47" r="22.03" style="fill:none;stroke:#1A476F;stroke-width:8.64"/>
	<circle cx="846.95" cy="1420.82" r="26.35" style="fill:#1A476F"/>
	<circle cx="846.95" cy="1420.82" r="22.03" style="fill:none;stroke:#1A476F;stroke-width:8.64"/>
	<circle cx="846.95" cy="1863.98" r="26.35" style="fill:#1A476F"/>
	<circle cx="846.95" cy="1863.98" r="22.03" style="fill:none;stroke:#1A476F;stroke-width:8.64"/>
	<circle cx="1348.01" cy="760.10" r="26.35" style="fill:#1A476F"/>
	<circle cx="1348.01" cy="760.10" r="22.03" style="fill:none;stroke:#1A476F;stroke-width:8.64"/>
	<circle cx="612.44" cy="1583.80" r="26.35" style="fill:#1A476F"/>
	<circle cx="612.44" cy="1583.80" r="22.03" style="fill:none;stroke:#1A476F;stroke-width:8.64"/>
	<circle cx="682.61" cy="1839.23" r="26.35" style="fill:#1A476F"/>
	<circle cx="682.61" cy="1839.23" r="22.03" style="fill:none;stroke:#1A476F;stroke-width:8.64"/>
	<circle cx="553.91" cy="2107.65" r="26.35" style="fill:#1A476F"/>
	<circle cx="553.91" cy="2107.65" r="22.03" style="fill:none;stroke:#1A476F;stroke-width:8.64"/>
	<circle cx="2719.65" cy="1383.07" r="26.35" style="fill:#1A476F"/>
	<circle cx="2719.65" cy="1383.07" r="22.03" style="fill:none;stroke:#1A476F;stroke-width:8.64"/>
	<circle cx="1178.22" cy="1464.26" r="26.35" style="fill:#1A476F"/>
	<circle cx="1178.22" cy="1464.26" r="22.03" style="fill:none;stroke:#1A476F;stroke-width:8.64"/>
	<circle cx="741.88" cy="1383.94" r="26.35" style="fill:#1A476F"/>
	<circle cx="741.88" cy="1383.94" r="22.03" style="fill:none;stroke:#1A476F;stroke-width:8.64"/>
	<circle cx="851.03" cy="1085.32" r="26.35" style="fill:#1A476F"/>
	<circle cx="851.03" cy="1085.32" r="22.03" style="fill:none;stroke:#1A476F;stroke-width:8.64"/>
	<circle cx="763.41" cy="1613.38" r="26.35" style="fill:#1A476F"/>
	<circle cx="763.41" cy="1613.38" r="22.03" style="fill:none;stroke:#1A476F;stroke-width:8.64"/>
	<circle cx="1170.30" cy="1510.91" r="26.35" style="fill:#1A476F"/>
	<circle cx="1170.30" cy="1510.91" r="22.03" style="fill:none;stroke:#1A476F;stroke-width:8.64"/>
	<circle cx="1224.75" cy="1793.19" r="26.35" style="fill:#1A476F"/>
	<circle cx="1224.75" cy="1793.19" r="22.03" style="fill:none;stroke:#1A476F;stroke-width:8.64"/>
	<circle cx="619.99" cy="1703.72" r="26.35" style="fill:#1A476F"/>
	<circle cx="619.99" cy="1703.72" r="22.03" style="fill:none;stroke:#1A476F;stroke-width:8.64"/>
	<circle cx="900.53" cy="1363.15" r="26.35" style="fill:#1A476F"/>
	<circle cx="900.53" cy="1363.15" r="22.03" style="fill:none;stroke:#1A476F;stroke-width:8.64"/>
	<circle cx="552.54" cy="1782.30" r="26.35" style="fill:#1A476F"/>
	<circle cx="552.54" cy="1782.30" r="22.03" style="fill:none;stroke:#1A476F;stroke-width:8.64"/>
	<circle cx="415.68" cy="336.73" r="26.35" style="fill:#1A476F"/>
	<circle cx="415.68" cy="336.73" r="22.03" style="fill:none;stroke:#1A476F;stroke-width:8.64"/>
	<path d=" M415.68 1535.54 L1945.47 1412.03 L3475.27 1288.65" stroke-linejoin="round" style="fill:none;stroke:#90353B;stroke-width:8.64"/>
	<line x1="290.81" y1="2233.63" x2="290.81" y2="100.86" style="stroke:#000000;stroke-width:5.76"/>
	<line x1="290.81" y1="2170.27" x2="250.84" y2="2170.27" style="stroke:#000000;stroke-width:5.76"/>
	<text x="200.73" y="2170.27" style="font-family:'Helvetica';font-size:99.99px;fill:#000000" transform="rotate(-90 200.73,2170.27)" text-anchor="middle">1</text>
	<line x1="290.81" y1="1546.92" x2="250.84" y2="1546.92" style="stroke:#000000;stroke-width:5.76"/>
	<text x="200.73" y="1546.92" style="font-family:'Helvetica';font-size:99.99px;fill:#000000" transform="rotate(-90 200.73,1546.92)" text-anchor="middle">2</text>
	<line x1="290.81" y1="923.45" x2="250.84" y2="923.45" style="stroke:#000000;stroke-width:5.76"/>
	<text x="200.73" y="923.45" style="font-family:'Helvetica';font-size:99.99px;fill:#000000" transform="rotate(-90 200.73,923.45)" text-anchor="middle">3</text>
	<line x1="290.81" y1="299.98" x2="250.84" y2="299.98" style="stroke:#000000;stroke-width:5.76"/>
	<text x="200.73" y="299.98" style="font-family:'Helvetica';font-size:99.99px;fill:#000000" transform="rotate(-90 200.73,299.98)" text-anchor="middle">4</text>
	<line x1="290.81" y1="2233.63" x2="3859.02" y2="2233.63" style="stroke:#000000;stroke-width:5.76"/>
	<line x1="354.17" y1="2233.63" x2="354.17" y2="2273.73" style="stroke:#000000;stroke-width:5.76"/>
	<text x="354.17" y="2363.59" style="font-family:'Helvetica';font-size:99.99px;fill:#000000" text-anchor="middle">0</text>
	<line x1="1501.34" y1="2233.63" x2="1501.34" y2="2273.73" style="stroke:#000000;stroke-width:5.76"/>
	<text x="1501.34" y="2363.59" style="font-family:'Helvetica';font-size:99.99px;fill:#000000" text-anchor="middle">1</text>
	<line x1="2648.50" y1="2233.63" x2="2648.50" y2="2273.73" style="stroke:#000000;stroke-width:5.76"/>
	<text x="2648.50" y="2363.59" style="font-family:'Helvetica';font-size:99.99px;fill:#000000" text-anchor="middle">2</text>
	<line x1="3795.66" y1="2233.63" x2="3795.66" y2="2273.73" style="stroke:#000000;stroke-width:5.76"/>
	<text x="3795.66" y="2363.59" style="font-family:'Helvetica';font-size:99.99px;fill:#000000" text-anchor="middle">3</text>
	<text x="2074.92" y="2473.60" style="font-family:'Helvetica';font-size:99.99px;fill:#000000" text-anchor="middle">Tax on Case of Beer</text>
	<rect x="1288.36" y="2558.24" width="1573.23" height="186.37" style="fill:#FFFFFF"/>
	<rect x="1291.24" y="2561.12" width="1567.47" height="180.61" style="fill:none;stroke:#000000;stroke-width:5.76"/>
	<circle cx="1353.45" cy="2651.43" r="26.35" style="fill:#1A476F"/>
	<circle cx="1353.45" cy="2651.43" r="22.03" style="fill:none;stroke:#1A476F;stroke-width:8.64"/>
	<line x1="1798.09" y1="2651.43" x2="2172.43" y2="2651.43" style="stroke:#90353B;stroke-width:8.64"/>
	<text x="1435.50" y="2686.46" style="font-family:'Helvetica';font-size:99.99px;fill:#000000">vfrall</text>
	<text x="2232.45" y="2686.46" style="font-family:'Helvetica';font-size:99.99px;fill:#000000">Fitted values</text>
</svg>