<svg xmlns="http://www.w3.org/2000/svg" xmlns:xlink="http://www.w3.org/1999/xlink" version="1.1" width="528px" height="384px" viewBox="0 0 3960 2880">
	<desc>Stata Graph - Graph</desc>
	<rect x="0" y="0" width="3960" height="2880" style="fill:#EAF2F3;stroke:none"/>
	<rect x="0.00" y="0.00" width="3959.88" height="2880.00" style="fill:#EAF2F3"/>
	<rect x="2.88" y="2.88" width="3954.12" height="2874.24" style="fill:none;stroke:#EAF2F3;stroke-width:5.76"/>
	<rect x="290.81" y="100.86" width="3568.21" height="2132.77" style="fill:#FFFFFF"/>
	<rect x="293.69" y="103.74" width="3562.45" height="2127.01" style="fill:none;stroke:#FFFFFF;stroke-width:5.76"/>
	<line x1="290.81" y1="2170.27" x2="3859.02" y2="2170.27" style="stroke:#EAF2F3;stroke-width:8.64"/>
	<line x1="290.81" y1="1769.06" x2="3859.02" y2="1769.06" style="stroke:#EAF2F3;stroke-width:8.64"/>
	<line x1="290.81" y1="1367.85" x2="3859.02" y2="1367.85" style="stroke:#EAF2F3;stroke-width:8.64"/>
	<line x1="290.81" y1="966.64" x2="3859.02" y2="966.64" style="stroke:#EAF2F3;stroke-width:8.64"/>
	<line x1="290.81" y1="565.43" x2="3859.02" y2="565.43" style="stroke:#EAF2F3;stroke-width:8.64"/>
	<line x1="290.81" y1="164.22" x2="3859.02" y2="164.22" style="stroke:#EAF2F3;stroke-width:8.64"/>
	<circle cx="2266.36" cy="673.34" r="26.35" style="fill:#1A476F"/>
	<circle cx="2266.36" cy="673.34" r="22.03" style="fill:none;stroke:#1A476F;stroke-width:8.64"/>
	<circle cx="2843.40" cy="800.94" r="26.35" style="fill:#1A476F"/>
	<circle cx="2843.40" cy="800.94" r="22.03" style="fill:none;stroke:#1A476F;stroke-width:8.64"/>
	<circle cx="1967.38" cy="835.96" r="26.35" style="fill:#1A476F"/>
	<circle cx="1967.38" cy="835.96" r="22.03" style="fill:none;stroke:#1A476F;stroke-width:8.64"/>
	<circle cx="2324.77" cy="933.23" r="26.35" style="fill:#1A476F"/>
	<circle cx="2324.77" cy="933.23" r="22.03" style="fill:none;stroke:#1A476F;stroke-width:8.64"/>
	<circle cx="2253.98" cy="1503.49" r="26.35" style="fill:#1A476F"/>
	<circle cx="2253.98" cy="1503.49" r="22.03" style="fill:none;stroke:#1A476F;stroke-width:8.64"/>
	<circle cx="2371.17" cy="1086.93" r="26.35" style="fill:#1A476F"/>
	<circle cx="2371.17" cy="1086.93" r="22.03" style="fill:none;stroke:#1A476F;stroke-width:8.64"/>
	<circle cx="2281.46" cy="653.05" r="26.35" style="fill:#1A476F"/>
	<circle cx="2281.46" cy="653.05" r="22.03" style="fill:none;stroke:#1A476F;stroke-width:8.64"/>
	<circle cx="2277.99" cy="996.09" r="26.35" style="fill:#1A476F"/>
	<circle cx="2277.99" cy="996.09" r="22.03" style="fill:none;stroke:#1A476F;stroke-width:8.64"/>
	<circle cx="604.64" cy="620.38" r="26.35" style="fill:#1A476F"/>
	<circle cx="604.64" cy="620.38" r="22.03" style="fill:none;stroke:#1A476F;stroke-width:8.64"/>
	<circle cx="2130.36" cy="1011.07" r="26.35" style="fill:#1A476F"/>
	<circle cx="2130.36" cy="1011.07" r="22.03" style="fill:none;stroke:#1A476F;stroke-width:8.64"/>
	<circle cx="2271.31" cy="851.67" r="26.35" style="fill:#1A476F"/>
	<circle cx="2271.31" cy="851.67" r="22.03" style="fill:none;stroke:#1A476F;stroke-width:8.64"/>
	<circle cx="2191.98" cy="782.99" r="26.35" style="fill:#1A476F"/>
	<circle cx="2191.98" cy="782.99" r="22.03" style="fill:none;stroke:#1A476F;stroke-width:8.64"/>
	<circle cx="2766.31" cy="714.55" r="26.35" style="fill:#1A476F"/>
	<circle cx="2766.31" cy="714.55" r="22.03" style="fill:none;stroke:#1A476F;stroke-width:8.64"/>
	<circle cx="2076.77" cy="1072.82" r="26.35" style="fill:#1A476F"/>
	<circle cx="2076.77" cy="1072.82" r="22.03" style="fill:none;stroke:#1A476F;stroke-width:8.64"/>
	<circle cx="2253.24" cy="948.08" r="26.35" style="fill:#1A476F"/>
	<circle cx="2253.24" cy="948.08" r="22.03" style="fill:none;stroke:#1A476F;stroke-width:8.64"/>
	<circle cx="1825.19" cy="1280.23" r="26.35" style="fill:#1A476F"/>
	<circle cx="1825.19" cy="1280.23" r="22.03" style="fill:none;stroke:#1A476F;stroke-width:8.64"/>
	<circle cx="2233.56" cy="441.18" r="26.35" style="fill:#1A476F"/>
	<circle cx="2233.56" cy="441.18" r="22.03" style="fill:none;stroke:#1A476F;stroke-width:8.64"/>
	<circle cx="2236.78" cy="810.96" r="26.35" style="fill:#1A476F"/>
	<circle cx="2236.78" cy="810.96" r="22.03" style="fill:none;stroke:#1A476F;stroke-width:8.64"/>
	<circle cx="2206.83" cy="898.95" r="26.35" style="fill:#1A476F"/>
	<circle cx="2206.83" cy="898.95" r="22.03" style="fill:none;stroke:#1A476F;stroke-width:8.64"/>
	<circle cx="2036.31" cy="712.08" r="26.35" style="fill:#1A476F"/>
	<circle cx="2036.31" cy="712.08" r="22.03" style="fill:none;stroke:#1A476F;stroke-width:8.64"/>
	<circle cx="2310.04" cy="935.08" r="26.35" style="fill:#1A476F"/>
	<circle cx="2310.04" cy="935.08" r="22.03" style="fill:none;stroke:#1A476F;stroke-width:8.64"/>
	<circle cx="1641.17" cy="1037.30" r="26.35" style="fill:#1A476F"/>
	<circle cx="1641.17" cy="1037.30" r="22.03" style="fill:none;stroke:#1A476F;stroke-width:8.64"/>
	<circle cx="2167.23" cy="690.18" r="26.35" style="fill:#1A476F"/>
	<circle cx="2167.23" cy="690.18" r="22.03" style="fill:none;stroke:#1A476F;stroke-width:8.64"/>
	<circle cx="2315.36" cy="1524.90" r="26.35" style="fill:#1A476F"/>
	<circle cx="2315.36" cy="1524.90" r="22.03" style="fill:none;stroke:#1A476F;stroke-width:8.64"/>
	<circle cx="2811.11" cy="976.54" r="26.35" style="fill:#1A476F"/>
	<circle cx="2811.11" cy="976.54" r="22.03" style="fill:none;stroke:#1A476F;stroke-width:8.64"/>
	<circle cx="2510.39" cy="1348.30" r="26.35" style="fill:#1A476F"/>
	<circle cx="2510.39" cy="1348.30" r="22.03" style="fill:none;stroke:#1A476F;stroke-width:8.64"/>
	<circle cx="2961.46" cy="1203.38" r="26.35" style="fill:#1A476F"/>
	<circle cx="2961.46" cy="1203.38" r="22.03" style="fill:none;stroke:#1A476F;stroke-width:8.64"/>
	<circle cx="2336.52" cy="1020.23" r="26.35" style="fill:#1A476F"/>
	<circle cx="2336.52" cy="1020.23" r="22.03" style="fill:none;stroke:#1A476F;stroke-width:8.64"/>
	<circle cx="2899.46" cy="1758.17" r="26.35" style="fill:#1A476F"/>
	<circle cx="2899.46" cy="1758.17" r="22.03" style="fill:none;stroke:#1A476F;stroke-width:8.64"/>
	<circle cx="2394.69" cy="942.76" r="26.35" style="fill:#1A476F"/>
	<circle cx="2394.69" cy="942.76" r="22.03" style="fill:none;stroke:#1A476F;stroke-width:8.64"/>
	<circle cx="1452.95" cy="759.48" r="26.35" style="fill:#1A476F"/>
	<circle cx="1452.95" cy="759.48" r="22.03" style="fill:none;stroke:#1A476F;stroke-width:8.64"/>
	<circle cx="2112.66" cy="1482.82" r="26.35" style="fill:#1A476F"/>
	<circle cx="2112.66" cy="1482.82" r="22.03" style="fill:none;stroke:#1A476F;stroke-width:8.64"/>
	<circle cx="2112.66" cy="860.34" r="26.35" style="fill:#1A476F"/>
	<circle cx="2112.66" cy="860.34" r="22.03" style="fill:none;stroke:#1A476F;stroke-width:8.64"/>
	<circle cx="2419.56" cy="2015.21" r="26.35" style="fill:#1A476F"/>
	<circle cx="2419.56" cy="2015.21" r="22.03" style="fill:none;stroke:#1A476F;stroke-width:8.64"/>
	<circle cx="2247.18" cy="560.73" r="26.35" style="fill:#1A476F"/>
	<circle cx="2247.18" cy="560.73" r="22.03" style="fill:none;stroke:#1A476F;stroke-width:8.64"/>
	<circle cx="2206.83" cy="904.27" r="26.35" style="fill:#1A476F"/>
	<circle cx="2206.83" cy="904.27" r="22.03" style="fill:none;stroke:#1A476F;stroke-width:8.64"/>
	<circle cx="2280.71" cy="839.79" r="26.35" style="fill:#1A476F"/>
	<circle cx="2280.71" cy="839.79" r="22.03" style="fill:none;stroke:#1A476F;stroke-width:8.64"/>
	<circle cx="1038.26" cy="391.31" r="26.35" style="fill:#1A476F"/>
	<circle cx="1038.26" cy="391.31" r="22.03" style="fill:none;stroke:#1A476F;stroke-width:8.64"/>
	<circle cx="1970.10" cy="1023.57" r="26.35" style="fill:#1A476F"/>
	<circle cx="1970.10" cy="1023.57" r="22.03" style="fill:none;stroke:#1A476F;stroke-width:8.64"/>
	<circle cx="2172.93" cy="706.02" r="26.35" style="fill:#1A476F"/>
	<circle cx="2172.93" cy="706.02" r="22.03" style="fill:none;stroke:#1A476F;stroke-width:8.64"/>
	<circle cx="2348.03" cy="1549.03" r="26.35" style="fill:#1A476F"/>
	<circle cx="2348.03" cy="1549.03" r="22.03" style="fill:none;stroke:#1A476F;stroke-width:8.64"/>
	<circle cx="3795.66" cy="1075.92" r="26.35" style="fill:#1A476F"/>
	<circle cx="3795.66" cy="1075.92" r="22.03" style="fill:none;stroke:#1A476F;stroke-width:8.64"/>
	<circle cx="1927.04" cy="759.48" r="26.35" style="fill:#1A476F"/>
	<circle cx="1927.04" cy="759.48" r="22.03" style="fill:none;stroke:#1A476F;stroke-width:8.64"/>
	<circle cx="1895.85" cy="825.81" r="26.35" style="fill:#1A476F"/>
	<circle cx="1895.85" cy="825.81" r="22.03" style="fill:none;stroke:#1A476F;stroke-width:8.64"/>
	<circle cx="2268.09" cy="1026.54" r="26.35" style="fill:#1A476F"/>
	<circle cx="2268.09" cy="1026.54" r="22.03" style="fill:none;stroke:#1A476F;stroke-width:8.64"/>
	<circle cx="2081.85" cy="840.54" r="26.35" style="fill:#1A476F"/>
	<circle cx="2081.85" cy="840.54" r="22.03" style="fill:none;stroke:#1A476F;stroke-width:8.64"/>
	<circle cx="2281.46" cy="934.71" r="26.35" style="fill:#1A476F"/>
	<circle cx="2281.46" cy="934.71" r="22.03" style="fill:none;stroke:#1A476F;stroke-width:8.64"/>
	<circle cx="2360.04" cy="1532.69" r="26.35" style="fill:#1A476F"/>
	<circle cx="2360.04" cy="1532.69" r="22.03" style="fill:none;stroke:#1A476F;stroke-width:8.64"/>
	<path d=" M604.64 584.86 L2200.15 976.54 L3795.66 1368.35" stroke-linejoin="round" style="fill:none;stroke:#90353B;stroke-width:8.64"/>
	<line x1="290.81" y1="2233.63" x2="290.81" y2="100.86" style="stroke:#000000;stroke-width:5.76"/>
	<line x1="290.81" y1="2170.27" x2="250.84" y2="2170.27" style="stroke:#000000;stroke-width:5.76"/>
	<text x="200.73" y="2170.27" style="font-family:'Helvetica';font-size:99.99px;fill:#000000" transform="rotate(-90 200.73,2170.27)" text-anchor="middle">-1.5</text>
	<line x1="290.81" y1="1769.06" x2="250.84" y2="1769.06" style="stroke:#000000;stroke-width:5.76"/>
	<text x="200.73" y="1769.06" style="font-family:'Helvetica';font-size:99.99px;fill:#000000" transform="rotate(-90 200.73,1769.06)" text-anchor="middle">-1</text>
	<line x1="290.81" y1="1367.85" x2="250.84" y2="1367.85" style="stroke:#000000;stroke-width:5.76"/>
	<text x="200.73" y="1367.85" style="font-family:'Helvetica';font-size:99.99px;fill:#000000" transform="rotate(-90 200.73,1367.85)" text-anchor="middle">-.5</text>
	<line x1="290.81" y1="966.64" x2="250.84" y2="966.64" style="stroke:#000000;stroke-width:5.76"/>
	<text x="200.73" y="966.64" style="font-family:'Helvetica';font-size:99.99px;fill:#000000" transform="rotate(-90 200.73,966.64)" text-anchor="middle">0</text>
	<line x1="290.81" y1="565.43" x2="250.84" y2="565.43" style="stroke:#000000;stroke-width:5.76"/>
	<text x="200.73" y="565.43" style="font-family:'Helvetica';font-size:99.99px;fill:#000000" transform="rotate(-90 200.73,565.43)" text-anchor="middle">.5</text>
	<line x1="290.81" y1="164.22" x2="250.84" y2="164.22" style="stroke:#000000;stroke-width:5.76"/>
	<text x="200.73" y="164.22" style="font-family:'Helvetica';font-size:99.99px;fill:#000000" transform="rotate(-90 200.73,164.22)" text-anchor="middle">1</text>
	<line x1="290.81" y1="2233.63" x2="3859.02" y2="2233.63" style="stroke:#000000;stroke-width:5.76"/>
	<line x1="354.17" y1="2233.63" x2="354.17" y2="2273.73" style="stroke:#000000;stroke-width:5.76"/>
	<text x="354.17" y="2363.59" style="font-family:'Helvetica';font-size:99.99px;fill:#000000" text-anchor="middle">-.6</text>
	<line x1="1034.55" y1="2233.63" x2="1034.55" y2="2273.73" style="stroke:#000000;stroke-width:5.76"/>
	<text x="1034.55" y="2363.59" style="font-family:'Helvetica';font-size:99.99px;fill:#000000" text-anchor="middle">-.4</text>
	<line x1="1715.05" y1="2233.63" x2="1715.05" y2="2273.73" style="stroke:#000000;stroke-width:5.76"/>
	<text x="1715.05" y="2363.59" style="font-family:'Helvetica';font-size:99.99px;fill:#000000" text-anchor="middle">-.2</text>
	<line x1="2395.43" y1="2233.63" x2="2395.43" y2="2273.73" style="stroke:#000000;stroke-width:5.76"/>
	<text x="2395.43" y="2363.59" style="font-family:'Helvetica';font-size:99.99px;fill:#000000" text-anchor="middle">0</text>
	<line x1="3075.93" y1="2233.63" x2="3075.93" y2="2273.73" style="stroke:#000000;stroke-width:5.76"/>
	<text x="3075.93" y="2363.59" style="font-family:'Helvetica';font-size:99.99px;fill:#000000" text-anchor="middle">.2</text>
	<line x1="3756.31" y1="2233.63" x2="3756.31" y2="2273.73" style="stroke:#000000;stroke-width:5.76"/>
	<text x="3756.31" y="2363.59" style="font-family:'Helvetica';font-size:99.99px;fill:#000000" text-anchor="middle">.4</text>
	<text x="2074.92" y="2473.60" style="font-family:'Helvetica';font-size:99.99px;fill:#000000" text-anchor="middle">dbtax</text>
	<rect x="1260.52" y="2558.24" width="1628.92" height="186.37" style="fill:#FFFFFF"/>
	<rect x="1263.40" y="2561.12" width="1623.16" height="180.61" style="fill:none;stroke:#000000;stroke-width:5.76"/>
	<circle cx="1325.73" cy="2651.43" r="26.35" style="fill:#1A476F"/>
	<circle cx="1325.73" cy="2651.43" r="22.03" style="fill:none;stroke:#1A476F;stroke-width:8.64"/>
	<line x1="1825.93" y1="2651.43" x2="2200.28" y2="2651.43" style="stroke:#90353B;stroke-width:8.64"/>
	<text x="1407.66" y="2686.46" style="font-family:'Helvetica';font-size:99.99px;fill:#000000">dvfrall</text>
	<text x="2260.29" y="2686.46" style="font-family:'Helvetica';font-size:99.99px;fill:#000000">Fitted values</text>
</svg>